<svg width="201" height="272" viewBox="0 0 201 272" fill="none" xmlns="http://www.w3.org/2000/svg">
<path d="M155.533 51.8121C161.222 48.6388 170.087 55.1145 174.006 58.7502C178.587 62.9773 182.282 68.3573 185.123 73.8964C198.024 99.0428 204.806 128.96 194.204 156.208C190.633 165.432 185.063 173.746 177.895 180.547C173.866 184.351 165.572 187.938 164.363 193.756C164.103 195.201 164.206 196.688 164.662 198.083C166.264 203.415 171.099 207.11 174.794 210.992C192.533 229.669 179.707 258.622 160.74 271.099" stroke="#CCDDE2" stroke-width="1.5" stroke-miterlimit="10"/>
<path d="M16.4199 149.864C21.9588 143.965 29.0367 139.978 36.1535 136.309C43.86 132.337 51.4439 128.338 58.4499 123.181C62.7151 120.047 66.7505 116.611 70.5247 112.898" stroke="#CCDDE2" stroke-width="1.5" stroke-miterlimit="10"/>
<path d="M7.42821 224.586C0.350363 206.252 -1.44605 185.236 5.93719 166.923" stroke="#CCDDE2" stroke-width="1.5" stroke-miterlimit="10"/>
<path d="M100.175 35.0537V15.4012C100.175 14.0476 99.6384 12.7495 98.6836 11.7923C97.7291 10.8352 96.4345 10.2975 95.0848 10.2975H30.1836C28.8336 10.2975 27.539 10.8352 26.5845 11.7923C25.63 12.7495 25.0938 14.0476 25.0938 15.4012V107.815C25.0991 109.165 25.6378 110.458 26.5917 111.41C27.5458 112.363 28.8372 112.898 30.1836 112.898H95.0938C95.7237 112.903 96.3485 112.782 96.9321 112.544" stroke="black" stroke-width="1.5" stroke-linecap="round" stroke-linejoin="round"/>
<path d="M93.0235 13.4199H32.2541C29.5636 13.4199 27.3828 15.6068 27.3828 18.3045V104.909C27.3828 107.607 29.5636 109.794 32.2541 109.794H93.0235C95.714 109.794 97.8948 107.607 97.8948 104.909V18.3045C97.8948 15.6068 95.714 13.4199 93.0235 13.4199Z" fill="#63A1FF"/>
<path d="M92.0781 20.8773H33.9703C32.6245 20.8773 31.5332 21.9713 31.5332 23.3211V36.4768C31.5332 37.8266 32.6245 38.9206 33.9703 38.9206H92.0781C93.4242 38.9206 94.5152 37.8266 94.5152 36.4768V23.3211C94.5152 21.9713 93.4242 20.8773 92.0781 20.8773Z" fill="#63A1FF"/>
<path d="M62.6377 28.4789C63.6664 28.4789 64.4999 27.6428 64.4999 26.6116C64.4999 25.5803 63.6664 24.7442 62.6377 24.7442C61.6092 24.7442 60.7754 25.5803 60.7754 26.6116C60.7754 27.6428 61.6092 28.4789 62.6377 28.4789Z" fill="#D7E8F0"/>
<path d="M57.4375 35.0538C57.4375 33.6706 57.9854 32.3443 58.9606 31.3662C59.936 30.3883 61.2587 29.8389 62.6381 29.8389C64.0174 29.8389 65.3402 30.3883 66.3153 31.3662C67.2908 32.3443 67.8387 33.6706 67.8387 35.0538H57.4375Z" fill="#D7E8F0"/>
<path d="M63.0183 58.2578C61.0342 58.2566 59.094 58.8456 57.4437 59.9502C55.7934 61.055 54.5069 62.6257 53.747 64.4637C52.9871 66.3016 52.788 68.3242 53.1749 70.2756C53.5617 72.2274 54.5171 74.02 55.9201 75.4268C57.3231 76.8337 59.1108 77.7917 61.0569 78.1796C63.0033 78.5674 65.0204 78.3678 66.8533 77.6058C68.6863 76.8439 70.2527 75.5538 71.3545 73.899C72.456 72.2442 73.0435 70.2988 73.0423 68.3092C73.0414 65.6435 71.9851 63.0875 70.1054 61.2027C68.2258 59.3179 65.6767 58.2584 63.0183 58.2578ZM63.0183 75.9348C62.63 75.9348 62.2575 75.7802 61.983 75.5049C61.7084 75.2293 61.5542 74.8561 61.5542 74.4667C61.5542 74.0773 61.7084 73.7039 61.983 73.4286C62.2575 73.1533 62.63 72.9986 63.0183 72.9986C63.4066 72.9986 63.7791 73.1533 64.0536 73.4286C64.3282 73.7039 64.4824 74.0773 64.4824 74.4667C64.4824 74.8561 64.3282 75.2293 64.0536 75.5049C63.7791 75.7802 63.4066 75.9348 63.0183 75.9348ZM64.8746 64.6315C64.5602 66.8111 64.2937 69.1078 63.656 71.2364C63.5003 71.7407 62.5452 71.7407 62.3896 71.2364C61.9315 69.6422 61.5794 68.0195 61.3357 66.3788C61.141 65.1779 60.4375 63.2565 61.1111 62.0916C61.6919 61.0589 63.3416 60.9298 64.2937 61.4702C65.4734 62.1457 65.0213 63.5477 64.8746 64.6315Z" fill="#D7E8F0"/>
<path d="M63.0188 75.9348C63.8274 75.9348 64.4828 75.2776 64.4828 74.4667C64.4828 73.6561 63.8274 72.9987 63.0188 72.9987C62.2101 72.9987 61.5547 73.6561 61.5547 74.4667C61.5547 75.2776 62.2101 75.9348 63.0188 75.9348Z" fill="white"/>
<path d="M64.8743 64.6315C64.5599 66.8112 64.2934 69.1078 63.6557 71.2364C63.5 71.7408 62.545 71.7408 62.3893 71.2364C61.9312 69.6425 61.5791 68.0198 61.3354 66.3788C61.1408 65.178 60.4372 63.2565 61.1108 62.0917C61.6917 61.0589 63.3414 60.9298 64.2934 61.4702C65.4731 62.1457 65.021 63.5478 64.8743 64.6315Z" fill="white"/>
<path d="M37.833 46.9785H86.8031" stroke="white" stroke-width="1.5" stroke-miterlimit="10"/>
<path d="M37.833 51.8091H86.8031" stroke="white" stroke-width="1.5" stroke-miterlimit="10"/>
<path d="M37.833 82.936H86.8031" stroke="white" stroke-width="1.5" stroke-miterlimit="10"/>
<path d="M98.7248 95.3921C98.9104 95.5362 99.2338 34.8376 99.2338 34.8376L80.8116 27.6984C80.8116 27.6984 67.117 61.3561 67.9464 61.6954L71.644 63.1965C71.644 63.1965 72.5571 62.4729 74.6739 67.6998C76.7907 72.9266 92.0482 90.2434 98.7248 95.3921Z" fill="white"/>
<path d="M49.207 87.5084H75.4286" stroke="white" stroke-width="1.5" stroke-miterlimit="10"/>
<path d="M172.441 122.703C172.201 125.321 168.98 155.349 172.102 161.213C173.234 163.335 162.001 161.303 161.324 161.147C151.144 158.745 141.611 154.316 132.689 148.931C123.767 143.545 115.884 136.456 106.581 131.68C104.863 130.797 101.057 128.864 102.183 126.333C104.099 122.022 106.453 116.071 106.638 110.808L106.581 103.903C106.581 103.903 105.222 99.5682 109.656 103.366C114.09 107.164 134.381 117.176 147.516 105.576C160.65 93.9751 161.429 84.8004 161.429 84.8004C161.429 84.8004 153.019 64.1632 129.075 76.7875L137.534 54.8714C137.534 54.8714 136.375 53.3973 140.04 53.6705C143.704 53.9437 150.501 52.1273 151.342 45.3934C151.342 45.3934 151.408 43.1958 155.285 47.3508C159.162 51.5059 177.486 67.7328 172.441 122.703Z" fill="#2E2E2E"/>
<path d="M125.368 44.9641C127.422 43.4534 129.723 42.3125 132.168 41.5926" stroke="black" stroke-width="1.5" stroke-miterlimit="10"/>
<path d="M116.267 147.429L99.7999 207.125L84.8298 261.411L75.2969 262.312C73.1112 262.514 71.0795 263.527 69.5999 265.152C68.1199 266.778 67.2987 268.899 67.2969 271.099H96.7789L118.132 234.196L134.015 206.741L158.848 163.809C159.566 162.558 160.264 161.306 160.944 160.027C160.955 160.012 160.961 159.994 160.962 159.976" stroke="black" stroke-width="1.5" stroke-miterlimit="10"/>
<path d="M171.829 127.294C172.054 125.835 172.251 124.375 172.428 122.907C172.428 122.838 172.428 122.778 172.446 122.709C173.454 113.818 173.668 104.855 173.087 95.9265C173.091 95.9007 173.091 95.8743 173.087 95.8485C172.428 86.1303 170.65 75.9228 167.099 65.9705C166.068 63.1001 164.793 60.3236 163.287 57.6724C163.177 57.4532 163.051 57.2371 162.913 57.0209C162.44 56.1923 161.931 55.3847 161.416 54.5861C160.718 53.5323 159.979 52.5086 159.203 51.5329C158.047 50.0513 156.765 48.673 155.371 47.4138C155.362 47.4105 155.354 47.4054 155.347 47.3988C155.341 47.3919 155.335 47.3838 155.332 47.3748C154.297 46.4552 153.196 45.6125 152.039 44.853C151.823 44.7058 151.608 44.5678 151.389 44.4296C151.355 44.4035 151.319 44.3804 151.281 44.3606" stroke="black" stroke-width="1.5" stroke-miterlimit="10"/>
<path d="M134.015 206.741L157.171 271.099H123.757C123.757 269.008 124.514 266.989 125.888 265.415C127.261 263.842 129.158 262.823 131.225 262.546L138.497 261.57C138.497 261.57 128.719 248.661 118.138 234.193" stroke="black" stroke-width="1.5" stroke-miterlimit="10"/>
<path d="M138.122 53.3493L128.086 79.3364C127.783 80.1208 127.328 80.8372 126.746 81.4433C126.164 82.0498 125.468 82.5337 124.698 82.8676C123.928 83.2014 123.099 83.3785 122.26 83.3881C121.421 83.3977 120.589 83.2401 119.811 82.924L96.0386 73.2749C96.0269 73.2425 96.0167 73.2094 96.0086 73.1758C95.7092 71.9749 92.6374 60.4645 88.9128 60.4645C86.0536 60.4645 87.4158 66.1417 88.6134 69.354C88.7512 69.6993 88.8799 70.0235 88.9967 70.2997L88.811 70.2217L70.1973 62.6141L81.9368 31.5833L104.856 40.4608L138.122 53.3493Z" fill="#D7E8F0"/>
<path d="M88.9904 70.2997C87.7419 67.4326 85.7539 60.4645 88.9156 60.4645C92.6401 60.4645 95.709 71.9839 96.0114 73.1758L96.0413 73.2749L119.811 82.927C120.59 83.2425 121.423 83.3995 122.263 83.389C123.103 83.3782 123.932 83.2002 124.703 82.8648C125.473 82.5295 126.17 82.0437 126.751 81.4358C127.332 80.8281 127.787 80.1103 128.089 79.3243L139.272 50.353L103.727 36.5759L80.8108 27.6984L67.9365 61.6954L88.9904 70.2997Z" stroke="black" stroke-width="1.5" stroke-miterlimit="10"/>
<path d="M162.671 69.5702C163.383 82.0293 160.608 97.9681 144.767 107.35C121.332 121.244 90.3174 89.766 78.8354 74.4908C76.9381 71.9822 75.3357 69.2622 74.0599 66.3848C73.6731 65.5475 73.3488 64.6826 73.0898 63.7969" stroke="black" stroke-width="1.5" stroke-miterlimit="10"/>
<path d="M106.375 101.213C106.375 101.213 108.171 114.336 102.632 125.492L102.656 125.462C102.656 125.462 102.656 125.483 102.638 125.492C94.135 141.485 81.9613 166.998 88.7518 185.536C91.0601 191.841 95.0392 199.347 99.7967 207.128" stroke="black" stroke-width="1.5" stroke-miterlimit="10"/>
<path d="M147.605 25.1675L147.623 25.2516C147.767 27.0094 147.209 28.7525 146.072 30.0975C144.934 31.4424 143.31 32.2795 141.557 32.4239C140.435 32.5214 139.307 32.3239 138.285 31.8504C137.992 31.7258 137.711 31.5763 137.444 31.4031C137.334 31.3269 137.245 31.2251 137.183 31.1068C137.122 30.9882 137.089 30.8567 137.089 30.7231C137.089 30.5895 137.122 30.458 137.183 30.3397C137.245 30.2211 137.334 30.1194 137.444 30.0431C138.731 29.1124 139.908 27.8155 140.243 26.2964C140.344 25.8292 140.352 25.3468 140.267 24.8763C140.175 24.2768 139.929 23.7121 139.551 23.238C139.174 22.764 138.68 22.3971 138.117 22.1743C137.941 22.1221 137.759 22.0927 137.575 22.0873C137.057 22.0452 136.378 22.1113 136.243 22.4956C136.904 20.6327 136.931 18.6026 136.321 16.7223C135.941 15.559 135.301 14.4982 134.45 13.6211C134.488 13.9609 134.452 14.3051 134.343 14.6292C134.234 14.9533 134.055 15.2493 133.819 15.4961C133.582 15.7429 133.295 15.9345 132.977 16.0573C132.658 16.1798 132.317 16.2309 131.977 16.2059C129.339 16.1159 128.842 13.5941 128.842 13.5941C128.842 13.5941 128.842 13.6241 128.842 13.6421C127.692 16.5152 124.351 16.5932 121.956 15.3173C121.106 14.8803 120.36 14.2661 119.767 13.516C119.087 10.5709 121.509 7.72476 124.303 7.31646C124.363 5.44308 125.725 3.43761 127.563 3.2845C128.204 3.22959 128.847 3.34799 129.427 3.62732C130.006 3.90667 130.5 4.33674 130.857 4.87267C130.908 4.95372 130.965 5.04079 131.009 5.13086C131.761 4.03805 132.991 2.84017 134.303 2.72909C135.212 2.66505 136.12 2.88304 136.902 3.35349C137.684 3.8239 138.302 4.52405 138.674 5.35902C138.674 5.22993 139.827 4.70154 139.944 4.6535C141.02 4.24307 142.202 4.20353 143.304 4.54107C144.405 4.87864 145.364 5.57407 146.027 6.51787C146.094 6.77877 146.138 7.04494 146.159 7.31346C146.225 8.1164 146.102 8.92363 145.8 9.67019C146.225 9.79184 146.623 9.99584 146.971 10.2706C147.723 10.8228 148.227 11.6503 148.375 12.5733C148.39 12.6664 148.399 12.7595 148.405 12.8525C148.465 13.5559 148.315 14.2614 147.974 14.879C148.859 15.1326 149.663 15.6136 150.306 16.2744C150.95 16.9352 151.41 17.753 151.641 18.6467C151.714 18.9424 151.763 19.2439 151.788 19.5474C151.89 20.8338 151.522 22.1134 150.752 23.1476C149.983 24.1816 148.864 24.8997 147.605 25.1675Z" fill="#63A1FF"/>
<path d="M147.605 25.1675L147.623 25.2516C147.767 27.0094 147.209 28.7524 146.072 30.0974C144.934 31.4424 143.31 32.2794 141.558 32.4238C140.435 32.5214 139.308 32.3239 138.285 31.8504C139.573 30.9197 140.749 29.6198 141.081 28.1007C141.199 27.5359 141.186 26.9514 141.044 26.3924C140.901 25.8334 140.632 25.3149 140.258 24.8763C140.166 24.2771 139.92 23.712 139.543 23.238C139.165 22.7639 138.671 22.3971 138.108 22.1743C137.932 22.1221 137.75 22.0926 137.567 22.0872C137.744 20.2097 137.303 18.3252 136.312 16.7223C135.932 15.5591 135.292 14.4982 134.441 13.6211C134.479 13.9609 134.443 14.3051 134.334 14.6292C134.225 14.9533 134.046 15.2493 133.81 15.4961C133.574 15.7429 133.286 15.9345 132.968 16.0573C132.649 16.1798 132.308 16.2308 131.968 16.2059C129.33 16.1159 128.833 13.5941 128.833 13.5941C128.833 13.5941 128.833 13.6241 128.833 13.6421C127.683 16.5151 124.342 16.5932 121.947 15.3174C121.097 14.8803 120.351 14.2661 119.758 13.516C119.079 10.5709 121.501 7.72477 124.294 7.31647C124.354 5.44309 125.716 3.43762 127.555 3.2845C128.195 3.22959 128.838 3.348 129.417 3.62733C129.997 3.90668 130.491 4.33675 130.848 4.87267C130.899 4.95373 130.956 5.0408 131.001 5.13086C131.752 4.03806 132.983 2.84018 134.294 2.7291C135.205 2.66317 136.114 2.88023 136.898 3.35079C137.682 3.82136 138.302 4.52256 138.674 5.35903C138.674 5.22994 139.827 4.70155 139.944 4.65351C141.02 4.24308 142.202 4.20354 143.304 4.54108C144.405 4.87865 145.364 5.57411 146.028 6.51788C146.094 6.77877 146.138 7.04495 146.159 7.31347C146.225 8.11641 146.102 8.92364 145.8 9.6702C146.225 9.79188 146.623 9.99585 146.971 10.2706C146.916 10.6831 146.808 11.0867 146.65 11.4715C147.314 11.6665 147.911 12.0428 148.375 12.5583C148.39 12.6514 148.399 12.7445 148.405 12.8375C148.465 13.5409 148.315 14.2464 147.974 14.864C148.419 14.9915 148.846 15.1772 149.243 15.4164C149.178 15.8553 149.037 16.2792 148.824 16.6683C149.956 16.9877 150.948 17.6791 151.641 18.6317C151.714 18.9274 151.763 19.2288 151.788 19.5324C151.894 20.8212 151.528 22.1047 150.758 23.1419C149.988 24.1792 148.867 24.8994 147.605 25.1675Z" fill="#63A1FF"/>
<path d="M124.339 19.1511C124.339 19.1511 128.135 19.2051 129.007 22.4175" stroke="black" stroke-width="1.5" stroke-miterlimit="10"/>
<path d="M123.36 28.7762C122.496 28.9899 121.599 29.0338 120.719 28.9053C120.553 28.8768 120.397 28.8086 120.264 28.7065C120.131 28.6042 120.024 28.4712 119.953 28.3186C119.882 28.1661 119.849 27.9986 119.857 27.8305C119.864 27.6624 119.913 27.4984 119.997 27.3531C120.788 26.0112 121.602 24.6842 122.488 23.4082C122.627 23.2458 122.713 23.0447 122.734 22.8318C122.734 22.8318 122.369 18.8599 123.168 15.8126" stroke="black" stroke-width="1.5" stroke-miterlimit="10"/>
<path d="M126.346 22.5309C126.427 21.8909 126.052 21.3166 125.509 21.2481C124.966 21.1797 124.46 21.6429 124.38 22.2827C124.3 22.9227 124.675 23.4971 125.218 23.5655C125.761 23.634 126.266 23.1707 126.346 22.5309Z" fill="black"/>
<path d="M144.284 31.5802C144.365 32.3758 147.925 37.8848 151.143 43.9673C151.142 43.9775 151.142 43.9874 151.143 43.9973C151.203 44.1264 151.263 44.2645 151.332 44.4026" stroke="black" stroke-width="1.5" stroke-linecap="round" stroke-linejoin="round"/>
<path d="M131.444 37.4045L132.564 45.3964" stroke="black" stroke-width="1.5" stroke-miterlimit="10"/>
<path d="M121.988 28.9773C121.988 28.9773 123.611 36.8911 127.602 38.089C131.593 39.2869 135.057 34.2942 135.057 34.2942" stroke="black" stroke-width="1.5" stroke-linecap="round" stroke-linejoin="round"/>
<path d="M123.078 32.5469C123.608 32.8577 124.207 33.0309 124.821 33.0507C125.435 33.0705 126.044 32.9366 126.593 32.661" stroke="black" stroke-width="1.5" stroke-linecap="round" stroke-linejoin="round"/>
<path d="M130.573 4.7704C130.525 4.15651 130.319 3.56564 129.974 3.05614C129.536 2.381 128.884 1.87282 128.123 1.61286C127.363 1.35286 126.537 1.35605 125.778 1.62195C125.02 1.88783 124.372 2.40103 123.939 3.07955C123.505 3.75805 123.311 4.56267 123.387 5.36483" stroke="black" stroke-width="1.5" stroke-miterlimit="10" stroke-linecap="round"/>
<path d="M129.028 10.2345C128.952 9.36729 128.668 8.53148 128.198 7.79921C127.729 7.06694 127.089 6.46023 126.333 6.03142C122.528 3.89685 117.651 8.0429 119.013 12.1499C119.492 13.579 120.633 14.6177 121.932 15.3082C124.327 16.5842 127.681 16.5092 128.818 13.633L128.836 13.588C128.836 13.588 129.333 16.1069 131.971 16.1999C132.312 16.2239 132.653 16.1726 132.972 16.0498C133.29 15.9267 133.578 15.7349 133.815 15.488C134.052 15.2411 134.231 14.9451 134.341 14.6209C134.45 14.2967 134.488 13.9523 134.45 13.612C136.72 15.9537 137.312 19.4543 136.246 22.4896C136.441 21.9432 137.743 22.0422 138.121 22.1683C139.743 22.7357 140.609 24.6602 140.249 26.2934C139.911 27.8215 138.734 29.1124 137.453 30.0491C137.344 30.1251 137.255 30.2265 137.193 30.3445C137.131 30.4628 137.099 30.5943 137.099 30.7276C137.099 30.8609 137.131 30.9924 137.193 31.1104C137.255 31.2287 137.344 31.3302 137.453 31.4061C138.673 32.1924 140.119 32.5515 141.564 32.4269C143.316 32.2822 144.94 31.4457 146.077 30.1014C147.214 28.757 147.773 27.0148 147.63 25.2576L147.612 25.1735C148.768 24.9307 149.811 24.3065 150.572 23.4004C151.334 22.4944 151.771 21.3586 151.814 20.1746C151.857 18.9905 151.504 17.8259 150.81 16.8664C150.116 15.9073 149.122 15.2087 147.986 14.8819C148.327 14.2643 148.477 13.5589 148.417 12.8554C148.335 11.9012 147.879 11.0183 147.15 10.3995C146.421 9.78082 145.477 9.47652 144.525 9.55301" stroke="black" stroke-width="1.5" stroke-linecap="round" stroke-linejoin="round"/>
<path d="M130.42 2.91215C131.138 1.71126 131.932 1.03877 133.414 0.915678C134.333 0.840353 135.253 1.05507 136.045 1.52987C136.837 2.00464 137.461 2.71571 137.83 3.56362C137.779 3.44654 138.983 2.89714 139.106 2.8491C139.586 2.66512 140.09 2.55383 140.603 2.51886C141.97 2.44509 143.312 2.90356 144.35 3.79855C145.389 4.69354 146.042 5.95596 146.174 7.32239C146.24 8.12533 146.117 8.93256 145.815 9.67912" stroke="black" stroke-width="1.5" stroke-linecap="square" stroke-linejoin="round"/>
<path d="M151.144 43.9703C151.144 43.9703 153.94 53.2952 137.952 53.7996" stroke="black" stroke-width="1.5" stroke-miterlimit="10"/>
<path d="M68.0157 137.396C67.9888 130.578 74.6714 128.744 77.872 128.804C97.7073 129.182 100.698 97.0164 100.698 97.0164" stroke="black" stroke-width="1.5" stroke-linecap="round" stroke-linejoin="round"/>
<path d="M171.83 127.294C171.83 127.294 169.488 150.453 171.83 158.246C174.171 166.04 160.707 159.925 160.707 159.925" stroke="black" stroke-width="1.5" stroke-miterlimit="10"/>
<path d="M37.6889 144.748H22.123" stroke="black" stroke-width="1.5" stroke-linecap="round" stroke-linejoin="round"/>
<path d="M93.4622 144.748H63.6777" stroke="black" stroke-width="1.5" stroke-linecap="round" stroke-linejoin="round"/>
<path d="M59.4051 144.748H41.8213" stroke="black" stroke-width="1.5" stroke-linecap="round" stroke-linejoin="round"/>
<path d="M58.9526 137.396H41.5664" stroke="black" stroke-width="1.5" stroke-linecap="round" stroke-linejoin="round"/>
<path d="M72.8052 137.396H63.4189" stroke="black" stroke-width="1.5" stroke-linecap="round" stroke-linejoin="round"/>
<path d="M96.6659 137.396H78.5371" stroke="black" stroke-width="1.5" stroke-linecap="round" stroke-linejoin="round"/>
<path d="M37.2213 137.396H34.1465" stroke="black" stroke-width="1.5" stroke-linecap="round" stroke-linejoin="round"/>
<path d="M58.377 136.736H62.3979C62.3979 136.736 67.0057 141.098 62.3979 146.09V149.579H58.377" stroke="black" stroke-width="1.5" stroke-linecap="round" stroke-linejoin="round"/>
<path d="M40.6719 136.736C40.6719 136.736 45.2797 141.098 40.6719 146.09V149.579" stroke="black" stroke-width="1.5" stroke-linecap="round" stroke-linejoin="round"/>
<path d="M40.6704 149.579H36.6494V146.09C41.2602 141.098 36.6494 136.736 36.6494 136.736H40.6704" stroke="black" stroke-width="1.5" stroke-linecap="round" stroke-linejoin="round"/>
<path d="M58.377 136.736C58.377 136.736 62.9877 141.098 58.377 146.09V149.579" stroke="black" stroke-width="1.5" stroke-linecap="round" stroke-linejoin="round"/>
<path d="M36.6494 146.09H40.6704" stroke="black" stroke-width="1.5" stroke-linecap="round" stroke-linejoin="round"/>
<path d="M58.377 146.09H62.3979" stroke="black" stroke-width="1.5" stroke-linecap="round" stroke-linejoin="round"/>
<path d="M73.8781 135.168C73.3647 135.825 72.9991 136.585 72.8063 137.396C72.5521 138.594 72.4566 139.821 72.5218 141.044C72.5398 142.245 72.6895 143.475 73.8272 144.106C75.5368 145.064 77.5907 143.695 77.6805 141.731C77.7784 140.255 78.0662 138.798 78.5368 137.396C78.5548 137.327 78.5757 137.267 78.5937 137.21" stroke="black" stroke-width="1.5" stroke-linecap="round" stroke-linejoin="round"/>
<path d="M78.5928 137.201C80.0179 136.901 82.1407 136.117 83.2215 134.097" stroke="black" stroke-width="1.5" stroke-linecap="round" stroke-linejoin="round"/>
<path d="M68.8691 144.748C68.8691 144.748 69.9889 147.709 72.8063 148.069C75.6236 148.429 73.8422 144.748 73.8422 144.748C73.8422 144.748 75.0099 147.342 76.423 147.429C77.8362 147.516 79.0578 146.228 78.5697 144.748C78.5697 144.748 79.0009 147.129 81.0907 146.868C83.1805 146.607 82.3182 144.748 82.3182 144.748" stroke="black" stroke-width="1.5" stroke-linecap="round" stroke-linejoin="round"/>
<g opacity="0.54">
<path opacity="0.54" d="M36.7308 186.914L34.7098 216.18C33.614 218.167 32.3805 219.927 31.2817 221.013C31.135 220.959 30.9823 220.905 30.8416 220.839C30.5721 220.746 30.3057 220.638 30.0512 220.539C25.9554 218.738 22.8655 215.384 21.9374 211.599C21.123 208.269 21.8596 204.672 20.2787 201.544C18.3506 197.692 13.0931 195.276 12.4614 190.925C11.8626 186.857 15.5123 183.12 14.9224 179.139C14.2398 174.635 8.72483 171.957 7.69489 167.553C7.05118 164.815 7.62603 161.675 7.39549 158.847C7.12273 155.696 6.59099 152.573 5.80566 149.51C13.9464 148.909 22.2338 153.413 24.8715 159.859C27.0272 165.133 25.7278 171.297 29.1021 176.103C30.9344 178.706 33.9883 180.652 35.5661 183.378C36.0524 184.227 36.4051 185.146 36.611 186.104C36.626 186.17 36.626 186.239 36.638 186.29C36.653 186.398 36.6649 186.479 36.6769 186.56C36.7039 186.794 36.7308 186.914 36.7308 186.914Z" fill="#63A1FF"/>
<path opacity="0.54" d="M36.7456 186.902H36.7306C36.7306 186.902 36.7037 186.782 36.6768 186.554C36.7022 186.647 36.7202 186.741 36.7306 186.836C36.7456 186.86 36.7456 186.887 36.7456 186.902Z" fill="#63A1FF"/>
</g>
<path d="M63.6418 175.491C62.57 179.289 56.8155 181.597 56.1179 185.491C55.5011 188.941 59.3035 192.162 58.6748 195.666C58.0071 199.428 52.543 201.508 50.537 204.838C48.9023 207.54 49.6658 210.635 48.8215 213.508C47.8454 216.771 44.6298 219.684 40.3334 221.227C40.067 221.323 39.8125 221.416 39.543 221.497C39.3963 221.536 39.2436 221.59 39.0879 221.629C37.6688 220.461 36.049 218.408 34.7227 216.192L36.7436 186.926H36.7586C38.3245 185.596 40.1179 184.375 41.3634 182.897C42.7167 181.3 43.3454 179.556 43.7586 177.731H43.7646V177.53C44.3634 174.641 44.4083 171.621 45.7616 168.883C48.5041 163.311 57.1119 159.432 65.5879 159.943C64.7888 162.573 64.2415 165.274 63.9532 168.01C63.7077 170.429 64.3125 173.14 63.6418 175.491Z" fill="#63A1FF"/>
<path d="M43.7635 177.505V177.707H43.7246C43.7456 177.638 43.7635 177.572 43.7635 177.505Z" fill="#63A1FF"/>
<path d="M43.7647 177.506C43.7647 177.572 43.7377 177.638 43.7257 177.707C43.3245 179.532 42.6958 181.276 41.3305 182.873C40.085 184.351 38.2916 185.575 36.7257 186.902C36.7257 186.902 36.7257 186.86 36.7108 186.848C36.7003 186.753 36.6823 186.659 36.6569 186.566C36.6569 186.485 36.6329 186.404 36.618 186.296C36.618 186.245 36.6179 186.176 36.591 186.11C36.385 185.153 36.0326 184.233 35.5461 183.384C33.9683 180.658 30.9144 178.712 29.082 176.109C29.082 176.109 29.9114 162.389 36.9114 158.213C43.5611 154.265 43.7647 175.221 43.7647 177.506Z" fill="#63A1FF"/>
<path d="M43.7635 177.505V177.707H43.7246C43.7456 177.638 43.7635 177.572 43.7635 177.505Z" fill="#63A1FF"/>
<path d="M36.7297 186.848V186.914C36.7297 186.914 36.7027 186.794 36.6758 186.566C36.7012 186.659 36.7192 186.753 36.7297 186.848Z" fill="#63A1FF"/>
<path d="M36.1078 186.917C37.6677 185.584 39.4761 184.348 40.7276 182.873C44.2365 178.718 42.8862 173.411 45.1377 168.856C47.8773 163.29 56.515 159.411 64.9701 159.922C64.1638 162.551 63.6144 165.253 63.3294 167.989C63.0779 170.423 63.6797 173.137 63.03 175.494C61.9521 179.289 56.2006 181.592 55.5 185.488C54.8803 188.935 58.6916 192.156 58.0599 195.66C57.3892 199.422 51.9312 201.499 49.9192 204.829C48.2815 207.531 49.0509 210.626 48.2006 213.505C47.1707 216.976 43.5988 220.044 38.9192 221.488C38.7695 221.539 38.6198 221.59 38.4581 221.629C37.0389 220.461 35.4192 218.411 34.0898 216.192" stroke="black" stroke-width="1.5" stroke-miterlimit="10"/>
<path d="M59.7964 164.287C47.1647 177.92 41.2336 206.666 38.9132 221.494C38.7246 222.746 38.5539 223.896 38.4072 224.922" stroke="black" stroke-width="1.5" stroke-miterlimit="10"/>
<path d="M60.9608 233.271L55.1404 267.659C55.003 268.601 54.5365 269.465 53.8237 270.095C53.1111 270.725 52.1982 271.081 51.2482 271.099H20.9009C19.9431 271.078 19.0243 270.714 18.3105 270.074C17.5967 269.433 17.135 268.557 17.0087 267.605L11.6494 233.271H60.9608Z" stroke="black" stroke-width="1.5" stroke-miterlimit="10"/>
<path d="M66.4831 229.441C66.3184 231.608 64.6059 233.278 62.552 233.278H10.1568C8.12384 233.278 6.42623 231.644 6.23162 229.501C6.00707 227.051 7.83042 224.928 10.1568 224.928H62.552C64.8574 224.928 66.6717 227.009 66.4831 229.441Z" stroke="black" stroke-width="1.5" stroke-miterlimit="10"/>
<path d="M30.6596 221.02C32.9081 218.78 35.6596 213.796 36.8812 209.722C37.8842 206.363 36.1147 202.907 35.7105 199.464C35.0758 194.06 37.7494 188.268 34.9321 183.381C33.3632 180.655 30.3093 178.715 28.477 176.104C25.0998 171.3 26.3962 165.145 24.2375 159.871C21.6087 153.413 13.3213 148.925 5.18359 149.51C5.96144 152.577 6.48808 155.703 6.75844 158.856C7.00096 161.675 6.42012 164.815 7.05784 167.562C8.09078 171.966 13.6117 174.632 14.2884 179.145C14.8872 183.135 11.2285 186.866 11.8303 190.928C12.477 195.285 17.7135 197.692 19.6507 201.55C21.2225 204.685 20.486 208.275 21.3033 211.602C22.3273 215.757 25.95 219.407 30.6596 221.02Z" stroke="black" stroke-width="1.5" stroke-miterlimit="10"/>
<path d="M10.1504 154.572C22.2761 170.363 27.9827 203.658 30.2103 220.845C30.4019 222.346 30.5725 223.7 30.7073 224.922" stroke="black" stroke-width="1.5" stroke-miterlimit="10"/>
<path d="M28.4766 176.104C28.4766 176.104 29.3089 162.383 36.3059 158.21C43.3029 154.037 43.1652 177.431 43.1652 177.431" stroke="black" stroke-width="1.5" stroke-miterlimit="10"/>
<path d="M36.108 186.917C36.108 186.917 34.6769 179.067 37.1829 171.351" stroke="black" stroke-width="1.5" stroke-miterlimit="10"/>
<path d="M197.156 144.748H170.961" stroke="black" stroke-width="1.5" stroke-linecap="round" stroke-linejoin="round"/>
<path d="M197.581 137.396H171.8" stroke="black" stroke-width="1.5" stroke-linecap="round" stroke-linejoin="round"/>
<path d="M13.7725 271.099H180.593" stroke="black" stroke-width="1.5" stroke-miterlimit="10"/>
</svg>
